#Comment line ignore any data following # character 
#Hierarchical Translation and Rotation (.htr) file 
[Header]	
#Header keywords are followed by a single value 
FileType HTR		#Single word string
DataType HTRS		#Translation followed by rotation and scale data
FileVersion 1		#integer
NumSegments 84		#integer
NumFrames 2		#integer
DataFrameRate 30		#integer, data frame rate in this file
EulerRotationOrder ZYX
CalibrationUnits mm
RotationUnits Degrees
GlobalAxisofGravity Y
BoneLengthAxis Y
ScaleFactor 1.00
[SegmentNames&Hierarchy]
#CHILD	PARENT
MASTER GLOBAL
root MASTER
chest root
L_mid_tent01 root
R_mid_tent01 root
spine01 root
Bip01_Neck chest
L_humerus chest
R_humerus chest
weapon_bone chest
Bip01_Head Bip01_Neck
eye_left_bone Bip01_Head
eye_right_bone Bip01_Head
L_forearm L_humerus
L_front_hand L_forearm
L_weapon_bone L_forearm
L_front_hand01_01 L_front_hand
L_front_hand02_01 L_front_hand
L_front_hand03_01 L_front_hand
L_front_hand01_02 L_front_hand01_01
L_front_hand02_02 L_front_hand02_01
L_front_hand03_02 L_front_hand03_01
R_forearm R_humerus
R_front_hand R_forearm
R_weapon_bone R_forearm
R_front_hand01_01 R_front_hand
R_front_hand02_01 R_front_hand
R_front_hand03_01 R_front_hand
R_front_hand01_02 R_front_hand01_01
R_front_hand02_02 R_front_hand02_01
R_front_hand03_02 R_front_hand03_01
null_rope01_connect L_mid_tent01
Rope1_Seg01 null_rope01_connect
Rope1_Seg02 Rope1_Seg01
Rope1_Seg03 Rope1_Seg02
Rope1_Seg04 Rope1_Seg03
Rope1_Seg05 Rope1_Seg04
Rope1_Seg06 Rope1_Seg05
Rope1_Seg07 Rope1_Seg06
Rope1_Seg09 Rope1_Seg07
L_mid_hand01 Rope1_Seg09
L_mid_hand02 Rope1_Seg09
L_mid_hand03 Rope1_Seg09
null_rope02_connect R_mid_tent01
Rope2_Seg01 null_rope02_connect
Rope2_Seg02 Rope2_Seg01
Rope2_Seg03 Rope2_Seg02
Rope2_Seg04 Rope2_Seg03
Rope2_Seg05 Rope2_Seg04
Rope2_Seg06 Rope2_Seg05
Rope2_Seg07 Rope2_Seg06
Rope2_Seg09 Rope2_Seg07
R_mid_hand01 Rope2_Seg09
R_mid_hand02 Rope2_Seg09
R_mid_hand03 Rope2_Seg09
spine02 spine01
spine03 spine02
pelvis spine03
null_rope03_connect pelvis
null_rope04_connect pelvis
Rope3_Seg01 null_rope03_connect
Rope3_Seg02 Rope3_Seg01
Rope3_Seg03 Rope3_Seg02
Rope3_Seg04 Rope3_Seg03
Rope3_Seg05 Rope3_Seg04
Rope3_Seg06 Rope3_Seg05
Rope3_Seg07 Rope3_Seg06
Rope3_Seg08 Rope3_Seg07
Rope3_Seg09 Rope3_Seg08
R_rear_hand01 Rope3_Seg09
R_rear_hand02 Rope3_Seg09
R_rear_hand03 Rope3_Seg09
Rope4_Seg01 null_rope04_connect
Rope4_Seg02 Rope4_Seg01
Rope4_Seg03 Rope4_Seg02
Rope4_Seg04 Rope4_Seg03
Rope4_Seg05 Rope4_Seg04
Rope4_Seg06 Rope4_Seg05
Rope4_Seg07 Rope4_Seg06
Rope4_Seg08 Rope4_Seg07
Rope4_Seg09 Rope4_Seg08
L_rear_hand01 Rope4_Seg09
L_rear_hand02 Rope4_Seg09
L_rear_hand03 Rope4_Seg09
[BasePosition]
#SegmentName Tx, Ty, Tz, Rx, Ry, Rz, BoneLength
MASTER 0.000000 0.000000 0.000000 -90.000000 0.000000 0.000000 10.000000 
root 0.000000 0.000000 0.000000 0.000000 0.000000 0.000000 10.000000 
chest 0.000000 0.000000 0.000000 0.000000 0.000000 0.000000 10.000000 
L_mid_tent01 0.000000 0.000000 0.000000 0.000000 0.000000 0.000000 10.000000 
R_mid_tent01 0.000000 0.000000 0.000000 0.000000 0.000000 0.000000 10.000000 
spine01 0.000000 0.000000 0.000000 0.000000 0.000000 0.000000 10.000000 
Bip01_Neck 0.000000 0.000000 0.000000 0.000000 0.000000 0.000000 10.000000 
L_humerus 0.000000 0.000000 0.000000 0.000000 0.000000 0.000000 10.000000 
R_humerus 0.000000 0.000000 0.000000 0.000000 0.000000 0.000000 10.000000 
weapon_bone 0.000000 0.000000 0.000000 0.000000 0.000000 0.000000 10.000000 
Bip01_Head 0.000000 0.000000 0.000000 0.000000 0.000000 0.000000 10.000000 
eye_left_bone 0.000000 0.000000 0.000000 0.000000 0.000000 0.000000 10.000000 
eye_right_bone 0.000000 0.000000 0.000000 0.000000 0.000000 0.000000 10.000000 
L_forearm 0.000000 0.000000 0.000000 0.000000 0.000000 0.000000 10.000000 
L_front_hand 0.000000 0.000000 0.000000 0.000000 0.000000 0.000000 10.000000 
L_weapon_bone 0.000000 0.000000 0.000000 0.000000 0.000000 0.000000 10.000000 
L_front_hand01_01 0.000000 0.000000 0.000000 0.000000 0.000000 0.000000 10.000000 
L_front_hand02_01 0.000000 0.000000 0.000000 0.000000 0.000000 0.000000 10.000000 
L_front_hand03_01 0.000000 0.000000 0.000000 0.000000 0.000000 0.000000 10.000000 
L_front_hand01_02 0.000000 0.000000 0.000000 0.000000 0.000000 0.000000 10.000000 
L_front_hand02_02 0.000000 0.000000 0.000000 0.000000 0.000000 0.000000 10.000000 
L_front_hand03_02 0.000000 0.000000 0.000000 0.000000 0.000000 0.000000 10.000000 
R_forearm 0.000000 0.000000 0.000000 0.000000 0.000000 0.000000 10.000000 
R_front_hand 0.000000 0.000000 0.000000 0.000000 0.000000 0.000000 10.000000 
R_weapon_bone 0.000000 0.000000 0.000000 0.000000 0.000000 0.000000 10.000000 
R_front_hand01_01 0.000000 0.000000 0.000000 0.000000 0.000000 0.000000 10.000000 
R_front_hand02_01 0.000000 0.000000 0.000000 0.000000 0.000000 0.000000 10.000000 
R_front_hand03_01 0.000000 0.000000 0.000000 0.000000 0.000000 0.000000 10.000000 
R_front_hand01_02 0.000000 0.000000 0.000000 0.000000 0.000000 0.000000 10.000000 
R_front_hand02_02 0.000000 0.000000 0.000000 0.000000 0.000000 0.000000 10.000000 
R_front_hand03_02 0.000000 0.000000 0.000000 0.000000 0.000000 0.000000 10.000000 
null_rope01_connect 0.000000 0.000000 0.000000 0.000000 0.000000 0.000000 10.000000 
Rope1_Seg01 0.000000 0.000000 0.000000 0.000000 0.000000 0.000000 10.000000 
Rope1_Seg02 0.000000 0.000000 0.000000 0.000000 0.000000 0.000000 10.000000 
Rope1_Seg03 0.000000 0.000000 0.000000 0.000000 0.000000 0.000000 10.000000 
Rope1_Seg04 0.000000 0.000000 0.000000 0.000000 0.000000 0.000000 10.000000 
Rope1_Seg05 0.000000 0.000000 0.000000 0.000000 0.000000 0.000000 10.000000 
Rope1_Seg06 0.000000 0.000000 0.000000 0.000000 0.000000 0.000000 10.000000 
Rope1_Seg07 0.000000 0.000000 0.000000 0.000000 0.000000 0.000000 10.000000 
Rope1_Seg09 0.000000 0.000000 0.000000 0.000000 0.000000 0.000000 10.000000 
L_mid_hand01 0.000000 0.000000 0.000000 0.000000 0.000000 0.000000 10.000000 
L_mid_hand02 0.000000 0.000000 0.000000 0.000000 0.000000 0.000000 10.000000 
L_mid_hand03 0.000000 0.000000 0.000000 0.000000 0.000000 0.000000 10.000000 
null_rope02_connect 0.000000 0.000000 0.000000 0.000000 0.000000 0.000000 10.000000 
Rope2_Seg01 0.000000 0.000000 0.000000 0.000000 0.000000 0.000000 10.000000 
Rope2_Seg02 0.000000 0.000000 0.000000 0.000000 0.000000 0.000000 10.000000 
Rope2_Seg03 0.000000 0.000000 0.000000 0.000000 0.000000 0.000000 10.000000 
Rope2_Seg04 0.000000 0.000000 0.000000 0.000000 0.000000 0.000000 10.000000 
Rope2_Seg05 0.000000 0.000000 0.000000 0.000000 0.000000 0.000000 10.000000 
Rope2_Seg06 0.000000 0.000000 0.000000 0.000000 0.000000 0.000000 10.000000 
Rope2_Seg07 0.000000 0.000000 0.000000 0.000000 0.000000 0.000000 10.000000 
Rope2_Seg09 0.000000 0.000000 0.000000 0.000000 0.000000 0.000000 10.000000 
R_mid_hand01 0.000000 0.000000 0.000000 0.000000 0.000000 0.000000 10.000000 
R_mid_hand02 0.000000 0.000000 0.000000 0.000000 0.000000 0.000000 10.000000 
R_mid_hand03 0.000000 0.000000 0.000000 0.000000 0.000000 0.000000 10.000000 
spine02 0.000000 0.000000 0.000000 0.000000 0.000000 0.000000 10.000000 
spine03 0.000000 0.000000 0.000000 0.000000 0.000000 0.000000 10.000000 
pelvis 0.000000 0.000000 0.000000 0.000000 0.000000 0.000000 10.000000 
null_rope03_connect 0.000000 0.000000 0.000000 0.000000 0.000000 0.000000 10.000000 
null_rope04_connect 0.000000 0.000000 0.000000 0.000000 0.000000 0.000000 10.000000 
Rope3_Seg01 0.000000 0.000000 0.000000 0.000000 0.000000 0.000000 10.000000 
Rope3_Seg02 0.000000 0.000000 0.000000 0.000000 0.000000 0.000000 10.000000 
Rope3_Seg03 0.000000 0.000000 0.000000 0.000000 0.000000 0.000000 10.000000 
Rope3_Seg04 0.000000 0.000000 0.000000 0.000000 0.000000 0.000000 10.000000 
Rope3_Seg05 0.000000 0.000000 0.000000 0.000000 0.000000 0.000000 10.000000 
Rope3_Seg06 0.000000 0.000000 0.000000 0.000000 0.000000 0.000000 10.000000 
Rope3_Seg07 0.000000 0.000000 0.000000 0.000000 0.000000 0.000000 10.000000 
Rope3_Seg08 0.000000 0.000000 0.000000 0.000000 0.000000 0.000000 10.000000 
Rope3_Seg09 0.000000 0.000000 0.000000 0.000000 0.000000 0.000000 10.000000 
R_rear_hand01 0.000000 0.000000 0.000000 0.000000 0.000000 0.000000 10.000000 
R_rear_hand02 0.000000 0.000000 0.000000 0.000000 0.000000 0.000000 10.000000 
R_rear_hand03 0.000000 0.000000 0.000000 0.000000 0.000000 0.000000 10.000000 
Rope4_Seg01 0.000000 0.000000 0.000000 0.000000 0.000000 0.000000 10.000000 
Rope4_Seg02 0.000000 0.000000 0.000000 0.000000 0.000000 0.000000 10.000000 
Rope4_Seg03 0.000000 0.000000 0.000000 0.000000 0.000000 0.000000 10.000000 
Rope4_Seg04 0.000000 0.000000 0.000000 0.000000 0.000000 0.000000 10.000000 
Rope4_Seg05 0.000000 0.000000 0.000000 0.000000 0.000000 0.000000 10.000000 
Rope4_Seg06 0.000000 0.000000 0.000000 0.000000 0.000000 0.000000 10.000000 
Rope4_Seg07 0.000000 0.000000 0.000000 0.000000 0.000000 0.000000 10.000000 
Rope4_Seg08 0.000000 0.000000 0.000000 0.000000 0.000000 0.000000 10.000000 
Rope4_Seg09 0.000000 0.000000 0.000000 0.000000 0.000000 0.000000 10.000000 
L_rear_hand01 0.000000 0.000000 0.000000 0.000000 0.000000 0.000000 10.000000 
L_rear_hand02 0.000000 0.000000 0.000000 0.000000 0.000000 0.000000 10.000000 
L_rear_hand03 0.000000 0.000000 0.000000 0.000000 0.000000 0.000000 10.000000 
#Beginning of Data. Separated by tabs
#Fr	Tx	Ty	Tz	Rx	Ry	Rz	SF
[MASTER]
26 0.000000 0.000000 0.000000 0.001660 0.001660 0.001660 0.000000
27 0.000000 0.000000 0.000000 0.001660 0.001660 0.001660 0.000000
[root]
26 -29.131409 -52.911110 1524.871338 -91.629700 -27.676081 -90.148109 1526.067139
27 -26.827814 -53.888874 1525.795044 -91.629723 -27.676090 -90.148125 1526.982056
[chest]
26 -84.512650 -34.090519 0.000000 -1.888051 0.943089 -178.206696 91.129311
27 -84.512650 -34.090519 0.000000 -1.888050 0.943089 -178.206696 91.129311
[L_mid_tent01]
26 27.299618 22.177654 -249.918304 3.862628 36.229202 81.347610 252.381226
27 27.299622 22.177656 -249.918304 3.862628 36.229202 81.347610 252.381226
[R_mid_tent01]
26 23.228794 24.509907 226.238495 160.432037 -47.061241 87.899765 228.744751
27 23.228794 24.509907 226.238495 160.432037 -47.061241 87.899765 228.744751
[spine01]
26 -0.361383 -0.195265 0.000000 0.001845 0.001451 13.654368 0.410763
27 -0.361383 -0.195265 0.000000 0.001845 0.001451 13.654368 0.410763
[Bip01_Neck]
26 165.484543 71.581718 0.000119 176.643677 -1.657967 43.431911 180.302734
27 165.484543 71.581718 0.000119 176.643677 -1.657967 43.431911 180.302734
[L_humerus]
26 -13.983130 -135.272980 -120.471481 156.317398 70.210068 -112.010254 181.680161
27 -13.983130 -135.272980 -120.471481 156.317398 70.210068 -112.010254 181.680161
[R_humerus]
26 -13.983309 -135.273102 125.287651 -172.382263 -66.903831 -92.553993 184.909012
27 -13.983309 -135.273102 125.287651 -172.382263 -66.903831 -92.553993 184.909012
[weapon_bone]
26 235.964890 -300.705902 0.000000 0.000000 -89.951546 -128.212341 382.234833
27 235.964890 -300.705902 0.000000 0.000000 -89.951546 -128.212341 382.234833
[Bip01_Head]
26 213.349075 185.980682 8.353734 5.200446 6.151311 -43.834991 283.154419
27 213.332809 186.025848 7.769200 5.200446 6.151311 -43.834991 283.155212
[eye_left_bone]
26 -24.626970 125.451866 -64.772606 0.000000 -90.000000 -99.840431 143.318359
27 -24.626970 125.451866 -64.772606 0.000000 -90.000000 -99.840431 143.318359
[eye_right_bone]
26 -24.626970 125.451866 64.327362 0.000000 -89.965736 80.156380 143.117676
27 -24.626970 125.451866 64.327362 0.000000 -89.965736 80.156380 143.117676
[L_forearm]
26 322.776093 0.000000 -0.000119 0.000119 -0.002344 -95.807457 322.776093
27 322.776093 0.000000 -0.000119 0.000119 -0.002344 -95.807457 322.776093
[L_front_hand]
26 241.149185 -0.042021 -3.300071 -178.667953 -1.835447 -27.422350 241.171753
27 241.149185 -0.042021 -3.300071 -178.667953 -1.835447 -27.422342 241.171753
[L_weapon_bone]
26 156.183838 0.000000 0.000000 0.000014 0.000007 0.000001 156.183838
27 156.183838 0.000000 0.000000 0.000014 0.000007 0.000001 156.183838
[L_front_hand01_01]
26 86.095154 20.947098 -0.655860 -0.342291 -0.495149 72.451675 88.609184
27 86.095154 20.947098 -0.655860 -0.349230 -0.490138 73.139862 88.609184
[L_front_hand02_01]
26 86.935165 -11.437475 24.513514 150.048462 -58.519783 -56.305634 91.046425
27 86.935165 -11.437475 24.513514 151.025070 -58.854908 -57.448093 91.046425
[L_front_hand03_01]
26 86.637497 -14.123976 -20.424902 -149.869949 56.734909 -57.903400 90.126129
27 86.637497 -14.123976 -20.424902 -150.781433 57.074547 -58.996464 90.126129
[L_front_hand01_02]
26 71.020905 -0.000179 0.000030 0.000322 -0.002325 -105.783043 71.020905
27 71.020905 -0.000179 0.000030 0.000323 -0.002325 -105.838058 71.020905
[L_front_hand02_02]
26 71.020927 -0.000119 0.000060 0.000322 -0.002325 -105.783043 71.020927
27 71.020927 -0.000119 0.000060 0.000323 -0.002325 -105.838058 71.020927
[L_front_hand03_02]
26 71.020905 -0.000060 0.000060 0.000322 -0.002325 -105.783043 71.020905
27 71.020905 -0.000060 0.000060 0.000323 -0.002325 -105.838058 71.020905
[R_forearm]
26 322.776428 -0.000060 0.000030 0.209504 0.012586 -94.339050 322.776428
27 322.776428 -0.000060 0.000030 0.209504 0.012586 -94.339050 322.776428
[R_front_hand]
26 238.847015 -0.006795 2.210259 -2.635298 -10.645461 -26.312506 238.857239
27 238.847015 -0.006795 2.210259 -2.635298 -10.645461 -26.312506 238.857239
[R_weapon_bone]
26 155.664093 0.002503 -0.000030 0.003487 0.001180 -90.988930 155.664078
27 155.664093 0.002503 -0.000030 0.003487 0.001180 -90.988930 155.664078
[R_front_hand01_01]
26 87.624611 14.231146 22.918642 -153.375839 -59.587151 60.286892 91.683487
27 87.624611 14.231146 22.918642 -154.293076 -59.856686 61.349701 91.683487
[R_front_hand02_01]
26 89.356956 14.367283 -19.491137 153.420532 57.944527 62.356834 92.579636
27 89.356956 14.367283 -19.491137 154.283218 58.213089 63.373535 92.579636
[R_front_hand03_01]
26 87.286232 -22.307278 -0.143439 0.155221 -0.427320 -74.955528 90.091743
27 87.286232 -22.307278 -0.143439 0.161369 -0.423469 -75.555016 90.091743
[R_front_hand01_02]
26 71.020905 0.000060 0.000119 0.002323 -0.000334 106.381714 71.020905
27 71.020905 0.000060 0.000119 0.002323 -0.000334 106.381714 71.020905
[R_front_hand02_02]
26 71.020844 -0.000030 -0.000119 0.002323 -0.000334 106.381714 71.020836
27 71.020844 -0.000030 -0.000119 0.002323 -0.000334 106.381714 71.020836
[R_front_hand03_02]
26 71.020905 0.000000 0.000030 0.002323 -0.000334 106.381714 71.020905
27 71.020905 0.000000 0.000030 0.002323 -0.000334 106.381714 71.020905
[null_rope01_connect]
26 328.732483 0.000000 -0.000238 -137.564545 -51.925488 175.258728 328.732483
27 328.732483 0.000000 -0.000238 -137.564545 -51.925488 175.258728 328.732483
[Rope1_Seg01]
26 -0.000038 -0.000114 0.000111 104.560692 49.994778 125.624435 0.000164
27 -0.000038 -0.000114 0.000112 105.263756 48.979286 126.674629 0.000165
[Rope1_Seg02]
26 139.999863 -0.000179 0.000000 -0.169931 -4.169973 4.710689 139.999863
27 139.999863 -0.000179 0.000000 -0.179260 -4.907672 4.450813 139.999863
[Rope1_Seg03]
26 139.999924 0.000060 -0.000060 -0.226567 -4.945516 6.197376 139.999924
27 139.999924 0.000060 -0.000060 -0.401372 -6.171244 5.632212 139.999924
[Rope1_Seg04]
26 139.999924 -0.000060 -0.000119 -0.358197 -7.548805 10.104853 139.999924
27 139.999924 -0.000060 -0.000119 -1.272243 -10.001784 9.188360 139.999924
[Rope1_Seg05]
26 139.999832 0.000119 -0.000060 -8.454043 -22.423660 19.244875 139.999832
27 139.999832 0.000119 -0.000060 -6.633680 -20.265072 18.871328 139.999832
[Rope1_Seg06]
26 139.999954 0.000119 -0.000060 -5.215182 -8.886443 5.876509 139.999954
27 139.999954 0.000119 -0.000060 -3.474010 -7.879026 6.195270 139.999954
[Rope1_Seg07]
26 139.999985 0.000060 0.000000 -3.408527 -4.193636 2.409141 139.999985
27 139.999985 0.000060 0.000000 -2.400318 -3.841838 2.690823 139.999985
[Rope1_Seg09]
26 121.602913 0.000119 -0.000089 -89.793175 -1.359789 0.847147 121.602913
27 121.602913 0.000119 -0.000089 -89.793175 -1.359789 0.847147 121.602913
[L_mid_hand01]
26 103.859421 1.038730 8.195221 130.544373 -67.584534 -38.866943 104.187431
27 103.859421 1.038730 8.195221 130.544373 -67.584534 -38.866943 104.187431
[L_mid_hand02]
26 105.572853 -4.139662 -10.864139 -168.923172 43.409309 -73.498886 106.211075
27 105.572853 -4.139662 -10.864139 -168.923172 43.409309 -73.498886 106.211075
[L_mid_hand03]
26 104.641464 17.579376 -3.913581 -6.012627 17.808174 74.893669 106.179977
27 104.641464 17.579376 -3.913581 -6.012626 17.808172 74.893661 106.179977
[null_rope02_connect]
26 328.732849 0.000179 -0.000119 -123.736763 41.490059 18.218470 328.732849
27 328.732849 0.000179 -0.000119 -123.736763 41.490059 18.218470 328.732849
[Rope2_Seg01]
26 -0.000045 0.000134 0.000153 -52.800949 47.144276 47.291454 0.000208
27 -0.000043 0.000134 0.000153 -53.516201 46.707634 46.103584 0.000207
[Rope2_Seg02]
26 139.999741 -0.000060 -0.000119 -0.072996 -7.511664 2.722785 139.999756
27 139.999741 -0.000060 -0.000119 -0.094565 -7.992317 2.938615 139.999756
[Rope2_Seg03]
26 140.000107 0.000030 0.000000 -0.312841 -9.484967 3.909190 140.000107
27 140.000107 0.000030 0.000000 -0.347207 -10.025171 4.089126 140.000107
[Rope2_Seg04]
26 139.999802 0.000000 -0.000060 -1.819185 -20.133804 7.608830 139.999802
27 139.999802 0.000000 -0.000060 -1.840454 -20.192482 7.704880 139.999802
[Rope2_Seg05]
26 139.999985 -0.000060 0.000119 -4.878843 -21.466873 5.034028 139.999985
27 139.999985 -0.000060 0.000119 -4.257382 -20.545162 5.447441 139.999985
[Rope2_Seg06]
26 139.999893 -0.000030 -0.000119 -2.218740 -6.254285 1.019580 139.999893
27 139.999893 -0.000030 -0.000119 -1.934614 -6.242672 1.261410 139.999893
[Rope2_Seg07]
26 139.999893 0.000060 -0.000060 -1.435534 -3.233045 0.433070 139.999893
27 139.999893 0.000060 -0.000060 -1.261564 -3.251877 0.576805 139.999893
[Rope2_Seg09]
26 121.338966 0.000089 -0.000060 33.793236 -1.359788 -0.847141 121.338966
27 121.338966 0.000089 -0.000060 33.793236 -1.359788 -0.847141 121.338966
[R_mid_hand01]
26 104.680779 11.144459 -10.335981 -16.212063 45.237247 70.462852 105.778534
27 104.680779 11.144459 -10.335981 -16.212063 45.237247 70.462852 105.778534
[R_mid_hand02]
26 104.070427 2.443552 8.231699 49.067368 -67.749771 39.286453 104.424065
27 104.070427 2.443552 8.231699 49.067368 -67.749771 39.286453 104.424065
[R_mid_hand03]
26 106.028137 -11.221827 -5.996406 -177.101105 15.551026 -76.585571 106.788818
27 106.028137 -11.221827 -5.996406 -177.101105 15.551026 -76.585571 106.788818
[spine02]
26 129.756927 0.001550 0.000119 -1.023899 -3.926965 6.770993 129.756927
27 129.756927 0.001550 0.000119 -1.023899 -3.926965 6.770993 129.756927
[spine03]
26 78.613846 0.087372 -4.898873 1.040681 4.146420 4.212376 78.766380
27 78.613846 0.087372 -4.898873 1.040680 4.146419 4.212375 78.766380
[pelvis]
26 169.435242 0.051022 0.000000 0.019518 -0.190233 -10.721436 169.435257
27 169.435242 0.051022 0.000000 0.019518 -0.190233 -10.721436 169.435257
[null_rope03_connect]
26 -1.257226 -2.466202 137.391083 -148.996323 -87.995132 -107.160522 137.418976
27 -1.257226 -2.466202 137.391083 -148.996323 -87.995132 -107.160522 137.418976
[null_rope04_connect]
26 -1.259640 -2.480268 -137.844437 -148.996323 -87.995132 -107.160522 137.872513
27 -1.259640 -2.480268 -137.844437 -148.996323 -87.995132 -107.160522 137.872513
[Rope3_Seg01]
26 0.000000 0.000000 0.000000 -136.666916 -42.782951 -74.817390 0.000000
27 0.000000 0.000000 0.000000 -137.148590 -42.037846 -73.804466 0.000000
[Rope3_Seg02]
26 139.999924 -0.000119 0.000060 -14.579123 2.567288 -37.501709 139.999924
27 139.999924 -0.000119 0.000060 -15.026254 2.917388 -37.290943 139.999924
[Rope3_Seg03]
26 139.999924 -0.000119 0.000119 -58.963718 11.577122 -45.809639 139.999924
27 139.999924 -0.000119 0.000119 -59.859917 12.804470 -46.324005 139.999924
[Rope3_Seg04]
26 139.999924 0.000119 0.000000 -27.172440 26.197161 -7.697446 139.999924
27 139.999924 0.000119 0.000000 -26.487516 26.811350 -7.639719 139.999924
[Rope3_Seg05]
26 139.999924 -0.000238 0.000060 -7.928703 30.915417 7.919276 139.999924
27 139.999924 -0.000238 0.000060 -7.750118 30.409489 7.121415 139.999924
[Rope3_Seg06]
26 139.999893 -0.000119 -0.000060 -0.143025 12.169892 5.130964 139.999893
27 139.999893 -0.000119 -0.000060 -0.167573 11.714965 4.604388 139.999893
[Rope3_Seg07]
26 139.999771 0.000060 -0.000119 0.595790 5.675459 2.393381 139.999771
27 139.999771 0.000060 -0.000119 0.569195 5.557902 2.203155 139.999771
[Rope3_Seg08]
26 139.999985 -0.000060 0.000000 0.678132 3.056262 1.246760 139.999985
27 139.999985 -0.000060 0.000000 0.665468 3.007385 1.162011 139.999985
[Rope3_Seg09]
26 90.185997 -0.000179 -0.000060 89.793228 -1.359877 -0.847183 90.185997
27 90.185997 -0.000179 -0.000060 89.793228 -1.359877 -0.847183 90.185997
[R_rear_hand01]
26 103.366196 -6.073594 -10.757982 -177.714203 24.565960 -73.910950 104.101845
27 103.366196 -6.073594 -10.757982 -177.714203 24.565960 -73.910950 104.101845
[R_rear_hand02]
26 100.509819 12.039542 -7.992327 -12.874829 36.868488 72.167213 101.543350
27 100.509819 12.039542 -7.992327 -12.874829 36.868488 72.167213 101.543350
[R_rear_hand03]
26 101.539970 5.215704 5.435467 71.484581 -71.816628 21.513813 101.819031
27 101.539970 5.215704 5.435467 71.484581 -71.816628 21.513813 101.819031
[Rope4_Seg01]
26 -0.000011 -0.000013 -0.000153 54.192764 -32.021076 -108.033318 0.000154
27 -0.000011 -0.000010 -0.000153 54.419598 -31.487282 -108.751778 0.000153
[Rope4_Seg02]
26 139.999985 0.000060 0.000119 12.805840 -39.886692 6.411296 139.999985
27 139.999985 0.000060 0.000119 12.253378 -38.387093 6.442860 139.999985
[Rope4_Seg03]
26 139.999924 0.000000 -0.000238 52.505844 -40.810482 19.736372 139.999924
27 139.999924 0.000000 -0.000238 52.882675 -42.322845 21.146751 139.999924
[Rope4_Seg04]
26 139.999985 0.000000 0.000119 25.410442 -2.328997 23.557261 139.999985
27 139.999985 0.000000 0.000119 25.039019 -2.168882 24.297846 139.999985
[Rope4_Seg05]
26 139.999802 -0.000060 -0.000119 17.443935 12.964176 34.988804 139.999802
27 139.999802 -0.000060 -0.000119 16.637850 12.576596 34.407448 139.999802
[Rope4_Seg06]
26 139.999924 0.000000 0.000060 2.657853 10.645482 15.502713 139.999924
27 139.999924 0.000000 0.000060 2.480009 10.011848 15.058402 139.999924
[Rope4_Seg07]
26 139.999802 0.000000 0.000000 0.065996 4.248226 5.871339 139.999802
27 139.999802 0.000000 0.000000 0.068363 4.059703 5.791686 139.999802
[Rope4_Seg08]
26 139.999924 0.000000 0.000119 -1.700010 2.176798 3.027046 139.999924
27 139.999924 0.000000 0.000119 -1.690389 2.094379 2.993756 139.999924
[Rope4_Seg09]
26 90.185791 0.000060 0.000060 -135.617828 2.228885 0.850567 90.185791
27 90.185791 0.000060 0.000060 -135.617828 2.228885 0.850567 90.185791
[L_rear_hand01]
26 101.696655 -8.392275 -7.654577 -12.874829 -36.868488 107.832764 102.329041
27 101.696655 -8.392275 -7.654577 -12.874829 -36.868488 107.832764 102.329041
[L_rear_hand02]
26 102.726799 -1.568258 5.773216 71.484581 71.816628 158.486160 102.900848
27 102.726799 -1.568258 5.773216 71.484581 71.816628 158.486160 102.900848
[L_rear_hand03]
26 104.552910 9.721220 -10.420293 -177.714203 -24.565960 -106.089035 105.519653
27 104.552910 9.721220 -10.420293 -177.714203 -24.565960 -106.089035 105.519653
